<?xml version="1.0" encoding="utf-8" ?><svg xmlns="http://www.w3.org/2000/svg" xmlns:xlink="http://www.w3.org/1999/xlink" width="1024" height="1024" viewBox="0 0 1024 1024"><path fill="white" d="M0 0L1024 0L1024 1024L0 1024L0 0Z"/><path fill="#292424" d="M451.087 365.249C461.325 364.817 473.565 363.299 481.764 369.977C495.35 381.044 499.996 405.721 501.95 422.352C506.026 457.051 506.478 493.585 505.657 528.538C505.079 553.18 504.109 580.999 499.869 605.263C497.745 617.416 493.559 630.861 486.02 640.72C482.058 645.046 478.524 648.146 472.592 649.172C468.787 649.829 453.725 651.299 450.983 649.397L451.366 648.733C454.737 648.622 458.162 648.907 460.258 645.918C461.622 637.568 461.166 625.728 461.15 617.007C461.072 602.352 461.083 587.697 461.18 573.042C461.388 541.334 461.352 509.625 461.073 477.917C461.095 445.194 461.323 412.456 461.047 379.73C461.028 377.515 461.034 371.333 460.205 369.449C458.58 365.757 453.62 366.988 450.821 366.124L451.087 365.249Z"/><path fill="white" d="M470.069 366.784C471.733 367.001 473.491 367.241 474.991 368.033C481.617 371.532 485.322 380.192 487.527 386.969C499.828 424.781 497.224 579.497 489.269 620.157C488.069 626.293 486.301 631.83 483.471 637.399C479.494 644.2 477.019 646.277 469.787 648.511C470.589 631.594 470.292 612.529 470.335 595.445C470.519 565.915 470.438 536.385 470.092 506.857L470.069 366.784Z"/><path fill="#292424" d="M765.096 650.178C763.767 652.185 761.218 653.881 759.063 652.453C749.038 645.807 750.328 623.175 750.315 613.5L750.287 577.794C750.29 558.851 752.73 527.186 740.092 511.314C738.444 509.244 733.561 507.243 730.964 508.439C730.61 509.436 730.456 509.893 730.46 510.985C730.584 540.108 730.541 569.261 730.503 598.384L730.472 627.239C730.468 632.45 730.313 637.831 730.796 643.031C731.468 650.252 738.099 647.506 741.446 649.987C737.665 650.476 713.701 650.208 710.121 649.729L709.9 649.118C711.577 648.152 713.592 648.705 715.518 648.423C723.892 647.194 721.512 634.625 721.481 628.498L721.592 601.159L721.613 420.25C721.562 405.546 722.052 385.777 721.19 371.042C720.886 365.845 713.027 367.381 710.499 365.937L710.705 365.367C714.448 364.434 734.051 364.774 738.2 366.478C746.206 369.509 752.143 378.262 755.521 385.808C767.945 413.562 772.081 492.801 739.369 507.292L738.718 507.574C762.418 523.574 760.396 556.634 760.374 582.026L760.2 622.8C760.155 626.899 758.694 640.129 764.338 640.549C769.934 637.465 769.501 604.347 769.502 597.588L770.45 597.52C770.634 614.167 772.209 633.103 766.093 648.473C765.749 649.321 765.64 649.404 765.096 650.178Z"/><path fill="white" d="M730.679 366.292C753.069 367.896 752.768 409.349 753.028 426.135C753.356 447.271 754.478 480.283 744.754 499.265C741.954 502.91 735.584 509.633 730.7 506.512C730.003 488.098 730.653 464.964 730.659 446.072C730.667 420.116 730 392.064 730.679 366.292Z"/><path fill="#292424" d="M162.604 413.343C162.751 406.593 164.926 367.915 166.906 364.694L167.818 364.329L168.575 364.805C169.908 373.282 170.438 386.028 171.068 395.036L174.527 443.771L184.889 588.012L187.986 628.283C188.387 633.433 188.108 640.153 189.554 645.004C189.811 645.866 190.05 646.192 190.749 646.723C193.446 648.771 200.782 649.153 204.117 648.375C205.511 648.051 206.295 647.478 207.054 646.265C208.919 643.284 207.876 607.724 207.885 600.972L207.813 421.313C207.776 414.449 208.26 375.68 206.953 371.431C206.426 369.701 205.205 368.268 203.581 367.471C200.649 366.031 197.69 367.007 196.715 365.731C199.039 364.69 225.397 364.663 227.782 365.673C219.008 367.525 216.433 368.687 216.466 378.119C216.523 394.824 216.822 411.536 216.854 428.24L216.795 554.491L216.897 620.633C216.904 625.98 216.324 643.527 216.991 647.554C217.902 648.315 218.42 648.491 219.633 648.39C225.15 647.93 230.259 644.074 233.5 639.801C247.307 621.596 247.091 566.507 247.56 543.188C248.144 540.089 248.015 537.796 248.525 534.785L248.494 648.533C252.067 648.485 259.966 648.795 261.386 644.669L262.228 644.695C264.338 648.777 268.357 648.635 272.745 649.799L272.538 650.071C266.271 650.527 170.111 650.224 169.753 650.071C170.046 647.085 180.602 651.518 179.879 641.359C178.086 616.166 176.96 590.618 174.395 565.506C166.789 565.208 159.175 565.167 151.566 565.382L150.73 564.95L151.061 562.678C151.666 550.632 152.92 538.548 153.651 526.485C153.62 525.723 153.537 525.711 153.867 525.141C154.075 517.088 155.135 507.216 155.643 498.988C155.622 498.243 155.534 498.22 155.888 497.692C156.057 493.722 156.406 489.477 156.649 485.489C156.625 484.745 156.537 484.721 156.883 484.189C157.909 466.308 159.943 448.336 161.117 430.451C161.489 424.786 161.974 418.979 162.604 413.343Z"/><path fill="white" d="M162.604 413.343L163.85 414.285L163.843 415.313C167.312 451.835 168.861 489.232 171.794 525.847C172.691 537.048 172.851 549.613 173.959 560.509C166.812 560.5 158.972 560.653 151.883 560.437L151.061 562.678C151.666 550.632 152.92 538.548 153.651 526.485C153.62 525.723 153.537 525.711 153.867 525.141C154.075 517.088 155.135 507.216 155.643 498.988C155.622 498.243 155.534 498.22 155.888 497.692C156.057 493.722 156.406 489.477 156.649 485.489C156.625 484.745 156.537 484.721 156.883 484.189C157.909 466.308 159.943 448.336 161.117 430.451C161.489 424.786 161.974 418.979 162.604 413.343Z"/><path fill="#66666A" d="M162.604 413.343L163.85 414.285L163.843 415.313C162.532 419.362 160.742 448.108 160.271 453.806C158.227 477.281 156.398 500.773 154.785 524.281C154.028 534.583 152.708 547.028 152.354 557.129C152.417 557.855 152.462 557.84 152.151 558.487L151.883 560.437L151.061 562.678C151.666 550.632 152.92 538.548 153.651 526.485C153.62 525.723 153.537 525.711 153.867 525.141C154.075 517.088 155.135 507.216 155.643 498.988C155.622 498.243 155.534 498.22 155.888 497.692C156.057 493.722 156.406 489.477 156.649 485.489C156.625 484.745 156.537 484.721 156.883 484.189C157.909 466.308 159.943 448.336 161.117 430.451C161.489 424.786 161.974 418.979 162.604 413.343Z"/><path fill="#AFADB2" d="M152.151 558.487C152.062 557.704 151.977 557.693 152.354 557.129C152.417 557.855 152.462 557.84 152.151 558.487Z"/><path fill="#AFADB2" d="M153.651 526.485C153.62 525.723 153.537 525.711 153.867 525.141C153.938 525.883 153.981 525.848 153.651 526.485Z"/><path fill="#AFADB2" d="M155.888 497.692C155.95 498.417 155.99 498.374 155.643 498.988C155.622 498.243 155.534 498.22 155.888 497.692Z"/><path fill="#AFADB2" d="M156.883 484.189C156.952 484.914 156.992 484.871 156.649 485.489C156.625 484.745 156.537 484.721 156.883 484.189Z"/><path fill="#292424" d="M797.955 410.308C797.946 405.881 800.862 367.052 801.742 364.892C803.089 364.213 802.388 364.318 803.926 364.651C805.125 366.993 822.145 615.803 823.755 637.606C823.933 640.027 824.081 645.583 826.131 647.025C828.961 649.016 835.882 648.903 839.191 648.283C841.123 647.921 842.692 647.035 843.665 645.29C845.039 642.827 844.12 588.725 844.144 581.076L844.248 426.933L844.254 393.666C844.254 386.394 844.731 377.77 843.339 370.621C842.354 365.56 835.704 367.751 832.46 365.592C838.89 363.71 856.655 365.583 863.997 365.263C864.203 365.254 865.32 366.724 860.377 366.298C853.438 368.116 853.194 370.787 853.069 377.68C852.576 405.1 852.843 432.509 853.005 459.929L853.005 551.699L853.217 621.509C853.288 627.676 853.003 642.346 853.508 647.636C856.819 651.398 865.351 645.466 867.436 642.877C884.276 621.965 882.572 578.455 883.075 553.297C883.009 550.681 883.437 526.651 883.989 526.013L884.297 526.12C884.601 527.443 884.532 539.799 884.487 541.81C884.251 552.412 884.8 563.77 884.431 574.265C884.866 599.609 884.945 624.957 884.669 650.303C875.615 649.944 806.862 650.956 805.592 649.49C808.101 647.23 815.949 649.668 815.593 642.695C815.199 634.962 814.439 627.209 813.87 619.481L809.933 565.453L786.898 565.438L786.303 564.599L786.488 561.247C787.235 551.053 788.154 540.681 788.648 530.49C788.622 529.743 788.536 529.72 788.875 529.178C789.082 524.641 789.339 520.105 789.647 515.574C789.679 515.102 789.628 515.006 789.863 514.621L790.629 501.547C790.67 501.102 790.623 501.018 790.857 500.662C791.531 489.758 793.044 478.788 793.625 467.911C793.606 467.179 793.529 467.193 793.883 466.657C794.295 458.55 795.225 441.545 796.418 433.962C796.542 430.507 797.431 413.035 797.955 410.308Z"/><path fill="white" d="M796.418 433.962C796.542 430.507 797.431 413.035 797.955 410.308C798.184 412.199 797.555 414.641 799.246 414.916C798.708 416.764 798.63 416.847 798.631 418.717C799.65 418.765 799.69 420.181 800.076 421.183C800.908 445.306 803.457 473.453 805.288 497.712L809.484 560.518C802.42 560.517 794.392 560.708 787.409 560.477L786.488 561.247C787.235 551.053 788.154 540.681 788.648 530.49C788.622 529.743 788.536 529.72 788.875 529.178C789.082 524.641 789.339 520.105 789.647 515.574C789.679 515.102 789.628 515.006 789.863 514.621L790.629 501.547C790.67 501.102 790.623 501.018 790.857 500.662C791.531 489.758 793.044 478.788 793.625 467.911C793.606 467.179 793.529 467.193 793.883 466.657C794.295 458.55 795.225 441.545 796.418 433.962Z"/><path fill="#66666A" d="M797.542 432.995C795.421 459.09 792.372 486.656 790.85 512.617C790.898 513.333 790.952 513.332 790.609 513.936C790.5 518.508 790.25 523.076 789.859 527.633C789.903 528.345 789.952 528.339 789.623 528.955C789.382 538.203 788.415 551.213 787.409 560.477L786.488 561.247C787.235 551.053 788.154 540.681 788.648 530.49C788.622 529.743 788.536 529.72 788.875 529.178C789.082 524.641 789.339 520.105 789.647 515.574C789.679 515.102 789.628 515.006 789.863 514.621L790.629 501.547C790.67 501.102 790.623 501.018 790.857 500.662C791.531 489.758 793.044 478.788 793.625 467.911C793.606 467.179 793.529 467.193 793.883 466.657C794.295 458.55 795.225 441.545 796.418 433.962L797.542 432.995Z"/><path fill="#AFADB2" d="M790.609 513.936C790.578 513.174 790.499 513.189 790.85 512.617C790.898 513.333 790.952 513.332 790.609 513.936Z"/><path fill="#AFADB2" d="M789.623 528.955C789.6 528.198 789.52 528.201 789.859 527.633C789.903 528.345 789.952 528.339 789.623 528.955Z"/><path fill="#AFADB2" d="M793.625 467.911C793.606 467.179 793.529 467.193 793.883 466.657C793.919 467.344 793.966 467.332 793.625 467.911Z"/><path fill="#AFADB2" d="M788.875 529.178C788.929 529.887 788.969 529.862 788.648 530.49C788.622 529.743 788.536 529.72 788.875 529.178Z"/><path fill="#2C2729" d="M796.418 433.962C796.542 430.507 797.431 413.035 797.955 410.308C798.184 412.199 797.555 414.641 799.246 414.916C798.708 416.764 798.63 416.847 798.631 418.717C798.342 423.049 797.482 428.913 797.542 432.995L796.418 433.962Z"/><path fill="#66666A" d="M883.075 553.297C883.009 550.681 883.437 526.651 883.989 526.013L884.297 526.12C884.601 527.443 884.532 539.799 884.487 541.81C884.251 552.412 884.8 563.77 884.431 574.265C883.266 567.178 884.762 556.038 883.711 549.522C883.662 551.206 883.533 551.63 883.075 553.297Z"/><path fill="#3B3737" d="M832.46 365.592C838.89 363.71 856.655 365.583 863.997 365.263C864.203 365.254 865.32 366.724 860.377 366.298C857.111 364.676 837.794 365.869 832.46 365.592Z"/><path fill="#AFADB2" d="M798.631 418.717C798.63 416.847 798.708 416.764 799.246 414.916C799.633 417.234 799.902 418.834 800.076 421.183C799.69 420.181 799.65 418.765 798.631 418.717Z"/><path fill="white" d="M604.183 365.048C607.651 364.977 616.557 364.628 619.503 365.426C622.879 366.063 625.031 367.188 628.055 368.728C662.221 386.127 661.163 519.252 619.805 521.061L618.899 521.551C618.241 522.774 618.087 642.085 619.205 646.125C621.412 648.65 627.07 649.014 630.837 649.851C626.967 650.133 599.697 650.917 597.689 649.438C598.963 648.062 608.737 649.785 609.216 644.034C609.74 637.743 609.367 631.019 609.345 624.658L609.382 586.957L609.214 459.543C609.27 431.842 609.327 404.139 609.322 376.44C609.321 368.636 608.26 366.988 600.662 366.364C599.852 366.393 598.501 366.572 597.996 365.702L598.139 365.368C599.178 364.717 602.84 365.023 604.183 365.048Z"/><defs><linearGradient id="gradient_0" gradientUnits="userSpaceOnUse" x1="597.54089" y1="507.27451" x2="630.46265" y2="508.0806"><stop offset="0" stop-color="#281F21"/><stop offset="1" stop-color="#2D2D2B"/></linearGradient></defs><path fill="url(#gradient_0)" d="M604.183 365.048C607.651 364.977 616.557 364.628 619.503 365.426L618.758 366.322C617.765 370.767 618.725 519.699 618.85 520.033L619.302 520.401L619.805 521.061L618.899 521.551C618.241 522.774 618.087 642.085 619.205 646.125C621.412 648.65 627.07 649.014 630.837 649.851C626.967 650.133 599.697 650.917 597.689 649.438C598.963 648.062 608.737 649.785 609.216 644.034C609.74 637.743 609.367 631.019 609.345 624.658L609.382 586.957L609.214 459.543C609.27 431.842 609.327 404.139 609.322 376.44C609.321 368.636 608.26 366.988 600.662 366.364C599.852 366.393 598.501 366.572 597.996 365.702L598.139 365.368C599.178 364.717 602.84 365.023 604.183 365.048Z"/><path fill="#3B3737" d="M600.662 366.364C599.852 366.393 598.501 366.572 597.996 365.702L598.139 365.368C599.178 364.717 602.84 365.023 604.183 365.048C602.839 365.323 600.81 365.067 600.662 366.364Z"/><path fill="#292424" d="M619.503 365.426C622.879 366.063 625.031 367.188 628.055 368.728C662.221 386.127 661.163 519.252 619.805 521.061L619.302 520.401C620.969 519.876 622.636 519.265 624.167 518.414C630.46 514.917 633.03 509.497 635.069 502.923C642.889 477.707 644.56 398.873 631.956 375.811C629.079 370.545 624.313 367.957 618.758 366.322L619.503 365.426Z"/><path fill="#292424" d="M956.446 416.632C956.75 409.769 959.015 366.808 961.559 363.803C963.402 366.719 965.227 397.663 965.642 403.008C967.269 422.232 968.751 441.468 970.086 460.715L980.02 595.552L982.581 629.245C982.954 634.385 983.15 639.872 983.938 644.936C984.54 648.806 992.437 648.024 994.035 649.207L993.649 649.876C990.735 650.412 966.754 650.539 964.709 649.288C966.561 647.124 975.666 651.411 974.815 640.244L971.011 593.626C970.394 585.414 969.95 573.409 968.921 565.546C961.352 565.497 953.142 565.612 945.631 565.386L944.919 565.458L945.472 560.502C945.298 554.382 946.235 546.046 946.603 539.807C947.44 525.604 948.896 511.302 949.642 497.09C949.678 496.633 949.622 496.535 949.873 496.185C950.412 484.881 951.991 473.401 952.635 462.06C952.674 461.616 952.623 461.531 952.866 461.188C953.614 447.621 955.181 430.263 956.446 416.632Z"/><path fill="white" d="M957.427 416.082L957.687 416.584L958.494 416.908L968.439 560.517C961.271 560.514 953.427 560.676 946.317 560.482L945.472 560.502C945.298 554.382 946.235 546.046 946.603 539.807C947.44 525.604 948.896 511.302 949.642 497.09C949.678 496.633 949.622 496.535 949.873 496.185C950.412 484.881 951.991 473.401 952.635 462.06C952.674 461.616 952.623 461.531 952.866 461.188C953.614 447.621 955.181 430.263 956.446 416.632L957.427 416.082Z"/><path fill="#7C7B80" d="M957.427 416.082L957.687 416.584C956.252 431.07 954.934 445.566 953.731 460.072C950.761 492.596 947.809 527.85 946.317 560.482L945.472 560.502C945.298 554.382 946.235 546.046 946.603 539.807C947.44 525.604 948.896 511.302 949.642 497.09C949.678 496.633 949.622 496.535 949.873 496.185C950.412 484.881 951.991 473.401 952.635 462.06C952.674 461.616 952.623 461.531 952.866 461.188C953.614 447.621 955.181 430.263 956.446 416.632L957.427 416.082Z"/><path fill="#AFADB2" d="M957.427 416.082C957.502 415.665 957.514 415.091 957.814 414.753C957.868 414.749 957.922 414.745 957.976 414.741C958.41 415.229 958.427 416.285 958.494 416.908L957.687 416.584L957.427 416.082Z"/><path fill="#292424" d="M58.844 411.425C59.484 400.018 60.4743 376.217 62.3826 365.045C63.5928 364.316 62.9466 364.492 64.4079 364.737C65.9398 367.24 65.8771 379.367 66.1233 382.911L69.6167 430.96L81.4491 594.8L83.8139 627.149C84.1978 632.821 84.2496 638.66 85.2185 644.233C86.096 649.28 94.1564 647.905 95.4429 649.338L95.0396 649.991C89.4966 650.545 77.0378 650.203 70.9554 650.129L71.1039 648.525C73.7501 647.298 76.219 646.394 76.0956 642.99C75.8077 635.053 75.1355 627.098 74.5952 619.167L70.8295 565.43C63.0831 565.308 55.335 565.333 47.5894 565.504L46.7445 564.95C46.9092 563.776 46.9383 562.207 47.0023 560.992C47.4675 556.964 47.7428 552.568 48.0046 548.512C49.6363 523.226 52.0895 497.832 53.6335 472.56C53.673 472.108 53.624 472.02 53.8628 471.661C54.7448 452.668 56.8848 430.411 58.844 411.425Z"/><path fill="white" d="M58.844 411.425L59.16 413.776C60.7339 414.457 60.4404 415.95 60.5117 417.356C60.6266 423.399 61.4195 430.371 61.859 436.517L64.4085 473.173C66.4426 502.023 68.0215 531.712 70.4868 560.434C63.6923 560.425 55.5369 560.623 48.851 560.309C47.371 560.492 47.8897 560.144 47.0023 560.992C47.4675 556.964 47.7428 552.568 48.0046 548.512C49.6363 523.226 52.0895 497.832 53.6335 472.56C53.673 472.108 53.624 472.02 53.8628 471.661C54.7448 452.668 56.8848 430.411 58.844 411.425Z"/><path fill="#66666A" d="M58.844 411.425L59.16 413.776C60.7339 414.457 60.4404 415.95 60.5117 417.356L59.7945 416.867C58.498 420.717 56.2336 451.79 55.7839 457.344C53.9551 479.658 52.2716 501.983 50.7336 524.319C49.8977 535.741 48.6725 548.13 48.2092 559.501C48.4231 559.77 48.637 560.04 48.851 560.309C47.371 560.492 47.8897 560.144 47.0023 560.992C47.4675 556.964 47.7428 552.568 48.0046 548.512C49.6363 523.226 52.0895 497.832 53.6335 472.56C53.673 472.108 53.624 472.02 53.8628 471.661C54.7448 452.668 56.8848 430.411 58.844 411.425Z"/><path fill="#292424" d="M279.77 412.958C280.362 406.423 282.719 367.99 284.43 364.652L285.34 364.539C285.585 364.867 285.83 365.195 286.074 365.523C287.52 383.551 288.725 401.598 290.005 419.638L302.652 593.685C303.742 608.656 304.958 629.893 306.715 645.205C307.059 648.202 315.4 648.327 316.4 649.673C315.371 650.453 288.035 650.496 285.051 650.108C284.691 650.061 284.332 650.005 283.975 649.942C287.983 649.109 294.212 648.766 296.77 646.278C298.562 640.807 293.058 576.484 291.907 565.503L268.624 565.473L268.435 561.936L268.457 560.809C268.779 552.61 269.836 543.24 270.437 534.941C271.688 516.539 273.042 498.143 274.498 479.756C276.099 459.032 277.238 433.123 279.77 412.958Z"/><path fill="white" d="M279.77 412.958L280.374 414.551L280.39 416.675L281.512 418.179C284.699 464.18 289.731 514.767 291.104 560.543C284.232 560.526 276.257 560.708 269.479 560.45L268.457 560.809C268.779 552.61 269.836 543.24 270.437 534.941C271.688 516.539 273.042 498.143 274.498 479.756C276.099 459.032 277.238 433.123 279.77 412.958Z"/><path fill="#66666A" d="M279.77 412.958L280.374 414.551L280.39 416.675C277.464 442.057 275.81 473.624 273.956 499.434L271.093 539.144C270.577 545.985 269.69 553.74 269.479 560.45L268.457 560.809C268.779 552.61 269.836 543.24 270.437 534.941C271.688 516.539 273.042 498.143 274.498 479.756C276.099 459.032 277.238 433.123 279.77 412.958Z"/><path fill="#CCCACF" d="M280.374 414.551C281.958 413.628 281.511 417.383 281.512 418.179L280.39 416.675L280.374 414.551Z"/><path fill="#292424" d="M387.009 412.338C388.045 397.989 388.697 378.264 390.542 364.658L391.589 364.095C394.16 368.309 394.974 391.922 395.431 398.075L400.293 465.757L412.732 632.887C412.992 636.598 413.159 640.8 413.664 644.541C414.434 650.257 421.459 648.164 423.188 649.727C421.123 650.786 395.287 650.391 391.232 650.227L391.788 650.049C395.199 648.991 402.317 648.853 404.228 645.498C405.739 642.843 400.092 574.373 399.151 565.197C396.831 564.691 378.524 565.016 375.312 565.043L375.838 560.499C377.022 533.031 379.949 503.246 381.645 475.491C381.625 474.752 381.537 474.723 381.884 474.199C381.984 470.879 382.267 467.044 382.618 463.744C384.419 446.82 384.839 429.161 387.009 412.338Z"/><path fill="white" d="M387.009 412.338L388.257 412.842C388.322 413.52 388.404 413.891 388.342 414.564L394.21 498.754C395.3 512.777 396.31 526.806 397.239 540.84C397.657 546.963 398.421 554.521 398.561 560.5C391.405 560.493 384.063 560.576 376.924 560.47L375.838 560.499C377.022 533.031 379.949 503.246 381.645 475.491C381.625 474.752 381.537 474.723 381.884 474.199C381.984 470.879 382.267 467.044 382.618 463.744C384.419 446.82 384.839 429.161 387.009 412.338Z"/><path fill="#66666A" d="M387.009 412.338L388.257 412.842C388.322 413.52 388.404 413.891 388.342 414.564C386.277 418.75 381.473 490.479 380.848 501.614C380.923 502.661 381.014 502.916 380.602 503.837C380.164 522.13 377.649 541.919 376.924 560.47L375.838 560.499C377.022 533.031 379.949 503.246 381.645 475.491C381.625 474.752 381.537 474.723 381.884 474.199C381.984 470.879 382.267 467.044 382.618 463.744C384.419 446.82 384.839 429.161 387.009 412.338Z"/><path fill="#AFADB2" d="M380.602 503.837C380.413 502.714 380.303 502.548 380.848 501.614C380.923 502.661 381.014 502.916 380.602 503.837Z"/><path fill="#AFADB2" d="M381.884 474.199C381.943 474.918 381.981 474.876 381.645 475.491C381.625 474.752 381.537 474.723 381.884 474.199Z"/><path fill="#292424" d="M882.759 365.126L935.637 365.038C935.561 382.343 936.024 401.951 935.425 418.977C935.076 421.15 935.985 434.738 934.068 433.546C933.888 418.068 932.802 401.358 929.321 386.215C927.239 377.156 923.522 368.59 913.48 366.513L913.405 552.63L913.397 611.75C913.401 621.83 913.366 631.914 913.491 641.993C913.579 649.154 918.995 648.16 924.159 648.785L924.301 649.533C922.482 650.586 895.94 650.35 892.25 649.721C895.086 648.276 899.686 648.836 902.462 646.714C904.265 645.334 904.779 642.916 904.758 640.774C904.512 614.908 904.657 588.986 904.588 563.123L904.658 466.035L904.558 404.581C904.57 399.307 905.397 368.689 903.586 366.846C885.979 367.221 885.279 409.717 884.408 422.096C882.897 419.901 883.694 418.559 883.065 415.799C882.536 403.017 881.981 377.799 882.759 365.126Z"/><path fill="#292424" d="M658.828 365.032L673.26 364.998C673.293 365.482 673.346 365.931 673.399 366.411C673.897 395.523 673.484 425.366 673.482 454.521L673.492 489.02C673.494 494.574 673.726 502.157 673.423 507.586L673.546 508.383L673.524 648.497C700.624 648.057 701.215 617.036 703.367 596.77C704.811 583.174 704.952 568.046 705.076 554.343C705.24 554.197 705.509 553.875 705.76 553.87C706.004 554.326 706.237 562.261 706.42 563.758C706.816 587.892 706.12 612.14 706.296 636.285C706.329 640.863 706.21 645.339 706.639 649.912C695.093 650.547 682.9 649.766 671.27 650.058C665.707 650.197 659.276 650.214 653.804 649.802L653.532 649.321C655.049 648.557 660.195 648.326 662.482 647.921C664.478 646.401 664.873 644.401 664.883 641.997C664.955 623.62 664.83 605.194 664.744 586.821L664.86 502.148C664.62 478.224 664.514 454.299 664.542 430.374C664.609 422.675 665.989 372.57 663.528 368.853C662.458 367.237 661.106 366.749 659.336 366.356C659.161 365.917 658.991 365.475 658.828 365.032Z"/><path fill="#292424" d="M561.986 650.383L514.059 650.308C512.21 650.288 510.615 650.576 509.581 649.52C511.849 648.231 515.12 649.796 517.304 647.828C521.351 644.138 520.573 636.56 520.498 631.436C520.2 610.938 520.424 590.431 520.47 569.93L520.533 439.335C520.486 418.208 520.473 397.078 520.295 375.953C520.208 365.585 517.643 367.362 509.542 366.281L509.008 365.387C512.2 365.61 528.167 365.127 529.544 366.088C528.865 378.324 529.179 392.485 529.163 404.841L529.054 473.955C529.026 478.99 529.308 504.147 528.649 507.383L528.948 508.106L529.033 597.891C529.042 614.424 528.773 632.501 529.454 648.952C536.538 648.441 541.123 647.495 546.135 641.66C560.021 625.495 560.313 579.659 560.562 559.012C560.991 555.7 560.87 553.014 561.528 549.725C562.253 583.432 561.627 616.766 561.986 650.383Z"/><path fill="#292424" d="M109.85 365.098L141.432 364.998C141.556 382.818 141.984 401.909 141.458 419.634C140.409 422.754 142.555 423.073 140.026 426.31C139.519 409.961 139.146 380.482 126.368 368.799C124.882 367.44 122.444 366.403 120.567 365.566C119.779 379.874 120.287 398.875 120.287 413.447L120.441 502.944L120.37 593.914C120.333 608.348 120.23 622.784 120.224 637.216C120.223 639.486 120.29 644.755 122.037 646.24C126.231 649.804 140.265 649.607 144.028 645.622L144.733 645.503C147.512 648.87 150.862 647.877 155.163 649.793C153.638 650.505 102.809 650.363 99.8365 649.488L100.07 648.925C109.299 647.989 111.381 648.143 111.414 637.949C111.489 614.071 111.351 590.193 111.317 566.314L111.124 436.716L111.107 391.335C111.129 386.323 111.502 370.288 110.665 366.161L109.85 365.098Z"/><path fill="#292424" d="M321.269 649.225C329.992 647.519 332.353 648.002 332.411 637.496C332.545 613.274 332.45 589.028 332.379 564.805C332.33 547.93 332.993 530.833 331.029 514.067C330.422 508.905 329.907 503.681 329.374 498.509L323.782 445.279L319.106 401.039C318.246 392.925 317.22 375.27 313.956 368.27C312.593 367.381 306.778 366.293 304.53 365.641L304.833 365.286C310.689 364.928 329.829 364.676 335.421 365.39C333.762 367.57 324.856 365.692 325.511 374.109C329.21 421.631 335.522 468.92 340.143 516.399L340.319 517.926L341.49 518.406C340.81 527.335 341.019 538.072 341.011 547.14L341.068 591.213L341.109 622.1C341.069 628.188 340.882 634.513 341.031 640.591C341.296 651.424 349.201 647.017 352.216 649.261C350.161 650.6 325.63 650.309 321.484 650.412L321.269 649.225Z"/><path fill="#292424" d="M554.531 365.067L561.025 364.977L561.036 410.58C561.024 416.858 561.309 426.988 560.924 432.979L561.046 451.389C560.973 452.456 560.936 453.391 560.9 454.456C560.652 452.791 560.542 452.305 560.063 450.693C559.959 447.844 559.91 444.993 559.916 442.142C557.317 420.538 561.296 370.784 532.561 366.344C533.249 364.867 550.941 365.622 554.531 365.067Z"/><path fill="#292424" d="M677.316 365.025C686.416 364.974 695.515 364.972 704.615 365.017C704.374 394.735 705.198 425.205 704.478 454.778C704.09 452.96 703.884 451.289 703.542 449.48C703.249 430.059 702.476 391.595 691.866 374.678C688.593 369.459 683.564 367.416 677.711 366.417L677.316 365.025Z"/><defs><linearGradient id="gradient_1" gradientUnits="userSpaceOnUse" x1="112.15686" y1="411.93918" x2="78.166962" y2="378.55789"><stop offset="0" stop-color="#0F1210"/><stop offset="1" stop-color="#312829"/></linearGradient></defs><path fill="url(#gradient_1)" d="M89.9423 364.858L109.85 365.098L110.665 366.161C104.857 368.048 101.027 370.343 98.346 376.31C92.3231 389.715 90.7745 417.478 91.028 432.118C91.1084 436.655 90.6391 464.979 89.9475 467.828C88.8781 455.643 89.7669 435.232 89.7165 422.129C89.5617 409.174 89.5277 396.218 89.6146 383.262C89.6455 377.829 89.4624 370.135 89.9423 364.858Z"/><path fill="#66666A" d="M89.9423 364.858C91.2664 386.193 89.4433 412.429 90.2378 434.515L90.5048 434.551L91.028 432.118C91.1084 436.655 90.6391 464.979 89.9475 467.828C88.8781 455.643 89.7669 435.232 89.7165 422.129C89.5617 409.174 89.5277 396.218 89.6146 383.262C89.6455 377.829 89.4624 370.135 89.9423 364.858Z"/><path fill="#292424" d="M688.583 461.343C688.613 458.44 688.746 441.644 689.511 440.163L689.922 440.5C690.202 453.825 689.889 467.298 689.961 480.637C689.983 484.774 689.986 489.923 689.581 494.009C689.769 513.759 690.009 535.225 689.458 555.014C689.085 552.18 689.195 550.624 688.562 547.722C688.459 538.468 687.164 521.568 683.027 513.437C681.474 510.385 680.013 509.299 676.882 508.366C676.779 508.02 676.675 507.674 676.572 507.328C677.74 506.882 679.401 506.222 680.237 505.313C687.493 497.431 688.292 471.663 688.583 461.343Z"/><path fill="#66666A" d="M688.583 461.343C688.613 458.44 688.746 441.644 689.511 440.163L689.922 440.5C690.202 453.825 689.889 467.298 689.961 480.637C689.983 484.774 689.986 489.923 689.581 494.009C688.644 484.225 690.367 469.597 689.316 460.972L688.583 461.343Z"/><path fill="#292424" d="M544.005 472.56L545.512 472.477C545.565 490.585 546.168 512.775 545.437 530.49C545.107 533.441 546.197 539.808 544.075 540.621C543.849 530.861 542.941 514.124 534.108 508.247L534.536 506.991C542.338 500.767 543.403 482.186 544.005 472.56Z"/><path fill="#66666A" d="M358.203 369.351C358.476 370.499 358.569 371.631 358.692 372.804C358.512 380.249 356.588 393.555 355.715 401.26C353.429 421.902 350.97 442.525 348.338 463.126C346.83 476.166 345.253 489.198 343.607 502.221C343.193 505.56 342.164 516.048 341.49 518.406L340.319 517.926L340.143 516.399L340.325 516.358C342.068 514.335 356.74 384.385 358.203 369.351Z"/><path fill="#66666A" d="M375.312 565.043C378.524 565.016 396.831 564.691 399.151 565.197C393.175 565.839 382.403 565.544 376.102 565.515C372.192 590.918 372.817 619.509 369.778 645.188L368.946 645.104C369.003 641.941 369.342 637.605 369.679 634.446C372.083 611.938 371.939 587.374 375.312 565.043Z"/><path fill="#66666A" d="M144.028 645.622C145.076 639.672 145.232 630.297 145.893 623.963C147.864 605.07 148.151 583.585 150.73 564.95L151.566 565.382L147.073 620.475C146.731 624.748 145.66 642.155 144.733 645.503L144.028 645.622Z"/><path fill="#7C7B80" d="M268.435 561.936L268.624 565.473C268.338 577.936 266.701 593.48 265.654 606.117C264.659 618.125 263.846 633.044 262.228 644.695L261.386 644.669C262.414 638.227 263.278 625.197 263.657 618.576C263.681 618.103 263.626 618.008 263.861 617.625C264.109 609.708 265.226 599.759 265.813 591.691C266.471 582.654 266.986 570.661 268.435 561.936Z"/><path fill="#66666A" d="M44.8496 587.629C45.0951 580.548 45.9205 571.981 46.7445 564.95L47.5894 565.504C45.6622 583.154 44.8119 601.251 43.3987 618.97C42.7753 626.787 42.4511 637.323 41.2511 644.909L40.4715 644.924C41.6153 626.317 43.3286 607.224 44.6325 588.554C44.6689 588.096 44.6225 588.006 44.8496 587.629Z"/><path fill="#66666A" d="M944.919 565.458L945.631 565.386C944.991 579.898 942.665 596.14 941.727 610.989C941.148 620.15 940.647 637.447 939.126 645.369C938.696 645.542 938.609 645.532 938.323 645.746C939.453 637.055 939.544 627.277 940.301 618.445C941.789 601.086 942.76 582.712 944.919 565.458Z"/><path fill="#7C7B80" d="M779.42 643.368C779.949 628.686 782.416 611.066 783.489 596.04C784.002 588.856 785.156 570.96 786.303 564.599L786.898 565.438C785.579 575.161 784.845 591.453 783.845 601.817C782.763 613.026 780.393 634.435 780.456 645.424C780.121 644.733 779.776 644.048 779.42 643.368Z"/><defs><linearGradient id="gradient_2" gradientUnits="userSpaceOnUse" x1="778.46368" y1="652.18427" x2="776.6142" y2="644.58026"><stop offset="0" stop-color="#201415"/><stop offset="1" stop-color="#424344"/></linearGradient></defs><path fill="url(#gradient_2)" d="M779.42 643.368C779.776 644.048 780.121 644.733 780.456 645.424C783.493 649.987 785.974 647.775 790.365 649.129C790.783 649.257 790.068 650.174 789.764 650.068C781.677 650.067 773.147 650.637 765.096 650.178C765.64 649.404 765.749 649.321 766.093 648.473C770.288 650.041 777.758 648.317 779.42 643.368Z"/><path fill="#66666A" d="M140.026 426.31C142.555 423.073 140.409 422.754 141.458 419.634C141.868 422.95 141.173 467.586 140.829 468.47L140.677 468.572C139.945 468.221 140.14 463.874 140.191 463.25C141.107 452.023 138.862 437.208 140.026 426.31Z"/><defs><linearGradient id="gradient_3" gradientUnits="userSpaceOnUse" x1="42.161205" y1="650.4696" x2="41.65699" y2="645.87311"><stop offset="0" stop-color="#2D2224"/><stop offset="1" stop-color="#2F3231"/></linearGradient></defs><path fill="url(#gradient_3)" d="M40.4715 644.924L41.2511 644.909C43.6022 649.488 50.0376 648.575 55.1175 650.108C51.1723 650.253 37.3476 650.368 33.496 649.977C33.8275 649.966 25.781 650.384 28.7721 648.934C33.3161 648.042 37.1255 648.594 40.4715 644.924Z"/><path fill="#2C2729" d="M33.496 649.977C33.8275 649.966 25.781 650.384 28.7721 648.934C31.0302 649.184 31.6963 648.723 33.496 649.977Z"/><defs><linearGradient id="gradient_4" gradientUnits="userSpaceOnUse" x1="937.80762" y1="650.18756" x2="937.58453" y2="646.55621"><stop offset="0" stop-color="#2C2123"/><stop offset="1" stop-color="#2E302F"/></linearGradient></defs><path fill="url(#gradient_4)" d="M938.323 645.746C938.609 645.532 938.696 645.542 939.126 645.369C941.998 649.06 947.973 648.73 952.596 649.699C944.945 650.362 930.767 650.772 923.353 649.511L927.118 648.878C931.437 648.164 934.619 648.557 938.323 645.746Z"/><path fill="#2C2729" d="M354.193 365.004C356.559 364.991 372.91 364.577 373.316 365.949C371.876 368.234 362.161 363.435 358.692 372.804C358.569 371.631 358.476 370.499 358.203 369.351C355.916 366.724 355.116 366.725 351.556 366.305C352.66 365.648 352.994 365.49 354.193 365.004Z"/><defs><linearGradient id="gradient_5" gradientUnits="userSpaceOnUse" x1="368.55246" y1="650.82416" x2="369.0936" y2="646.51172"><stop offset="0" stop-color="#26181A"/><stop offset="1" stop-color="#2C2E2D"/></linearGradient></defs><path fill="url(#gradient_5)" d="M368.946 645.104L369.778 645.188C372.206 649.718 378.756 648.695 383.824 649.927C378.156 650.503 360.427 650.389 354.766 649.609C359.805 648.695 365.493 648.945 368.946 645.104Z"/><path fill="#66666A" d="M935.425 418.977C936.099 433.177 935.037 447.891 935.462 462.14C935.491 463.125 935.783 467.892 934.818 468.222C934.378 467.693 933.873 436.387 934.068 433.546C935.985 434.738 935.076 421.15 935.425 418.977Z"/><path fill="#66666A" d="M545.437 530.49C545.608 534.192 545.635 572.439 545.052 573.332L544.843 573.427C544.719 573.271 543.887 543.141 544.075 540.621C546.197 539.808 545.107 533.441 545.437 530.49Z"/><path fill="#66666A" d="M705.076 554.343C704.911 551.906 705.17 532.677 705.969 532.207L705.987 532.294L706.131 532.119C706.706 533.5 706.566 560.442 706.42 563.758C706.237 562.261 706.004 554.326 705.76 553.87C705.509 553.875 705.24 554.197 705.076 554.343Z"/><path fill="#66666A" d="M884.011 439.226C884.079 443.103 884.353 466.166 883.747 468.156C883.638 468.172 883.529 468.187 883.42 468.203C882.875 467.364 882.812 444.825 883.042 442.311L884.011 439.226Z"/><path fill="#3B3737" d="M509.008 365.387C511.616 364.815 521.676 364.967 525.026 365.017C534.614 365.163 545.032 364.723 554.531 365.067C550.941 365.622 533.249 364.867 532.561 366.344C531.039 366.525 531.071 366.463 529.544 366.088C528.167 365.127 512.2 365.61 509.008 365.387Z"/><path fill="#2C2729" d="M883.065 415.799C883.694 418.559 882.897 419.901 884.408 422.096C884.683 426.839 883.9 433.869 884.011 439.226L883.042 442.311C882.989 433.846 882.777 424.206 883.065 415.799Z"/><path fill="#7C7B80" d="M560.562 559.012C560.393 556.294 560.426 532.553 561.146 531.989C562.025 532.44 561.876 548.123 561.528 549.725C560.87 553.014 560.991 555.7 560.562 559.012Z"/><path fill="#3B3737" d="M545.471 450.491L545.512 472.477L544.005 472.56L544.562 454.808C545.138 452.893 545.194 452.474 545.471 450.491Z"/><path fill="#7C7B80" d="M688.562 547.722C689.195 550.624 689.085 552.18 689.458 555.014C689.913 558.999 689.328 563.683 689.524 567.75C689.565 568.604 689.936 572.899 688.82 573.041L688.992 572.841L688.68 572.742C688.187 570.861 688.452 550.669 688.562 547.722Z"/><path fill="#7C7B80" d="M560.063 450.693C560.542 452.305 560.652 452.791 560.9 454.456C560.936 453.391 560.973 452.456 561.046 451.389C561.383 454.064 561.696 465.996 561.058 468.415C560.182 467.561 560.377 467.256 560.324 466.016C559.945 460.918 559.858 455.802 560.063 450.693Z"/><path fill="#CCCACF" d="M561.046 451.389C561.383 454.064 561.696 465.996 561.058 468.415C560.829 463.723 561.15 459.061 560.9 454.456C560.936 453.391 560.973 452.456 561.046 451.389Z"/><path fill="#7C7B80" d="M703.542 449.48C703.884 451.289 704.09 452.96 704.478 454.778C704.97 458.078 704.386 462.341 704.67 465.756C704.703 466.153 704.906 467.765 704.215 467.791C703.286 466.852 703.45 451.781 703.542 449.48Z"/><path fill="#7C7B80" d="M247.56 543.188C247.462 541.008 247.269 526.592 248.18 525.563L248.421 525.69L248.366 525.468C248.919 526.97 248.853 533.206 248.525 534.785C248.015 537.796 248.144 540.089 247.56 543.188Z"/><path fill="#7C7B80" d="M545.073 440.237C545.184 440.252 545.295 440.266 545.406 440.281C545.672 440.688 545.536 449.415 545.471 450.491C545.194 452.474 545.138 452.893 544.562 454.808C544.401 450.567 544.526 446.629 544.712 442.392C544.504 441.188 544.484 441.304 545.073 440.237Z"/><path fill="#CCCACF" d="M544.712 442.392C544.504 441.188 544.484 441.304 545.073 440.237C545.046 441.319 545.162 441.476 544.712 442.392Z"/><path fill="#3B3737" d="M659.336 366.356C651.234 366.741 650.015 364.782 658.828 365.032C658.991 365.475 659.161 365.917 659.336 366.356Z"/><path fill="#66666A" d="M769.502 597.588C769.5 597.478 769.092 588.684 770.226 590.238C770.737 590.938 770.485 596.472 770.45 597.52L769.502 597.588Z"/><path fill="#2C2729" d="M70.9554 650.129C69.7916 650.101 67.6547 650.18 66.6441 650.009L66.6651 649.978C64.0741 649.082 70.8165 648.582 71.1039 648.525L70.9554 650.129Z"/><path fill="#3B3737" d="M528.649 507.383C531.186 506.942 531.94 506.99 534.536 506.991L534.108 508.247C532.01 507.987 531.058 508.019 528.948 508.106L528.649 507.383Z"/><path fill="#3B3737" d="M673.26 364.998C674.616 365.002 675.96 364.993 677.316 365.025L677.711 366.417C676.274 366.45 674.836 366.448 673.399 366.411C673.346 365.931 673.293 365.482 673.26 364.998Z"/><path fill="#3B3737" d="M351.556 366.305C350.397 366.268 348.732 366.327 347.906 365.58L347.952 365.455C349.087 364.706 352.688 365 354.193 365.004C352.994 365.49 352.66 365.648 351.556 366.305Z"/><path fill="#CCCACF" d="M321.484 650.412C321.018 650.419 317.307 650.851 317.328 649.883C318.348 648.985 320.02 649.232 321.269 649.225L321.484 650.412Z"/><path fill="#7C7B80" d="M673.423 507.586C674.457 507.5 675.541 507.382 676.572 507.328C676.675 507.674 676.779 508.02 676.882 508.366C675.688 508.42 674.74 508.423 673.546 508.383L673.423 507.586Z"/></svg>